<svg width="500" height="500" viewBox="0 0 500 500" fill="none" xmlns="http://www.w3.org/2000/svg">
<path d="M428.469 272.1C407.819 272.1 397.669 249 383.319 249C374.219 249 368.619 256 365.819 272.8L349.719 270.35C353.219 243.75 364.069 228.7 383.319 228.7C403.969 228.7 414.119 251.8 428.469 251.8C437.569 251.8 443.169 244.8 445.969 228L462.069 230.45C458.569 257.05 447.719 272.1 428.469 272.1Z" fill="white"/>
<path d="M272.609 272.1C251.959 272.1 241.809 249 227.459 249C218.359 249 212.759 256 209.959 272.8L193.859 270.35C197.359 243.75 208.209 228.7 227.459 228.7C248.109 228.7 258.259 251.8 272.609 251.8C281.709 251.8 287.309 244.8 290.109 228L306.209 230.45C302.709 257.05 291.859 272.1 272.609 272.1Z" fill="white"/>
<path d="M116.75 272.1C96.1 272.1 85.95 249 71.6 249C62.5 249 56.9 256 54.1 272.8L38 270.35C41.5 243.75 52.35 228.7 71.6 228.7C92.25 228.7 102.4 251.8 116.75 251.8C125.85 251.8 131.45 244.8 134.25 228L150.35 230.45C146.85 257.05 136 272.1 116.75 272.1Z" fill="white"/>
</svg>
